<?xml version="1.0" encoding="UTF-8" standalone="no"?>
<!-- Created with Inkscape (http://www.inkscape.org/) -->

<svg
   xmlns:dc="http://purl.org/dc/elements/1.1/"
   xmlns:cc="http://creativecommons.org/ns#"
   xmlns:rdf="http://www.w3.org/1999/02/22-rdf-syntax-ns#"
   xmlns:svg="http://www.w3.org/2000/svg"
   xmlns="http://www.w3.org/2000/svg"
   xmlns:sodipodi="http://sodipodi.sourceforge.net/DTD/sodipodi-0.dtd"
   xmlns:inkscape="http://www.inkscape.org/namespaces/inkscape"
   width="512"
   height="512"
   viewBox="0 0 135.46666 135.46667"
   version="1.1"
   id="svg8"
   sodipodi:docname="fish.svg"
   inkscape:export-filename="/home/mvlach/Dev/LD44/Assets/Textures/fish.svg.png"
   inkscape:export-xdpi="96"
   inkscape:export-ydpi="96"
   inkscape:version="0.92.3 (2405546, 2018-03-11)">
  <defs
     id="defs2" />
  <sodipodi:namedview
     id="base"
     pagecolor="#ffffff"
     bordercolor="#666666"
     borderopacity="1.0"
     inkscape:pageopacity="0"
     inkscape:pageshadow="2"
     inkscape:zoom="1.4"
     inkscape:cx="222.26935"
     inkscape:cy="237.03525"
     inkscape:document-units="mm"
     inkscape:current-layer="layer1"
     showgrid="true"
     units="px"
     inkscape:pagecheckerboard="true"
     inkscape:window-width="1600"
     inkscape:window-height="841"
     inkscape:window-x="0"
     inkscape:window-y="27"
     inkscape:window-maximized="1">
    <inkscape:grid
       type="xygrid"
       id="grid836" />
  </sodipodi:namedview>
  <metadata
     id="metadata5">
    <rdf:RDF>
      <cc:Work
         rdf:about="">
        <dc:format>image/svg+xml</dc:format>
        <dc:type
           rdf:resource="http://purl.org/dc/dcmitype/StillImage" />
        <dc:title />
      </cc:Work>
    </rdf:RDF>
  </metadata>
  <g
     inkscape:label="Layer 1"
     inkscape:groupmode="layer"
     id="layer1"
     transform="translate(0,-161.53332)">
    <rect
       style="fill:#ffffff;fill-opacity:1;stroke:none;stroke-width:1.56500006;stroke-linecap:butt;stroke-linejoin:miter;stroke-miterlimit:4;stroke-dasharray:none;stroke-dashoffset:0;stroke-opacity:1"
       id="rect838"
       width="137.58333"
       height="137.58333"
       x="-1.0583308"
       y="160.47499" />
    <g
       id="g820"
       transform="translate(7.5176296)"
       style="fill:#000000;fill-opacity:1">
      <path
         sodipodi:nodetypes="scscscscs"
         inkscape:connector-curvature="0"
         id="path844"
         d="m 52.916666,216.03749 c -15.875,0 -23.8125,13.22916 -23.8125,13.22916 0,0 7.9375,13.22917 23.8125,13.22917 0.486333,0 0.939414,-0.0126 1.362707,-0.0367 0.423156,0.0241 0.876557,0.0367 1.362708,0.0367 15.874999,0 23.812499,-13.22917 23.812499,-13.22917 0,0 -7.9375,-13.22916 -23.812499,-13.22916 -0.486151,0 -0.939552,0.0126 -1.362708,0.0367 -0.423293,-0.0241 -0.876374,-0.0367 -1.362707,-0.0367 z"
         style="fill:#000000;fill-opacity:1;stroke:none;stroke-width:0.26458332px;stroke-linecap:butt;stroke-linejoin:miter;stroke-opacity:1" />
      <path
         inkscape:connector-curvature="0"
         id="path844-7"
         transform="matrix(0.26458333,0,0,0.26458333,0,161.53332)"
         d="M 345.17383,207.0332 C 294.96104,214.16248 269.84961,256 269.84961,256 c 0,0 24.44069,40.72267 73.31445,48.66211 A 75,75 0 0 1 326,257 75,75 0 0 1 345.17383,207.0332 Z"
         style="fill:#000000;fill-opacity:1;stroke:none;stroke-width:0.99999994px;stroke-linecap:butt;stroke-linejoin:miter;stroke-opacity:1" />
    </g>
    <circle
       style="fill:#ffffff;fill-opacity:1;stroke:none;stroke-width:1.56500006;stroke-linecap:butt;stroke-linejoin:miter;stroke-miterlimit:4;stroke-dasharray:none;stroke-dashoffset:0;stroke-opacity:1"
       id="path822"
       cx="48.002979"
       cy="229.26665"
       r="2.6458333" />
  </g>
</svg>
