<?xml version="1.0" encoding="UTF-8" standalone="no"?>
<!-- Created with Inkscape (http://www.inkscape.org/) -->

<svg
   xmlns:dc="http://purl.org/dc/elements/1.1/"
   xmlns:cc="http://creativecommons.org/ns#"
   xmlns:rdf="http://www.w3.org/1999/02/22-rdf-syntax-ns#"
   xmlns:svg="http://www.w3.org/2000/svg"
   xmlns="http://www.w3.org/2000/svg"
   xmlns:sodipodi="http://sodipodi.sourceforge.net/DTD/sodipodi-0.dtd"
   xmlns:inkscape="http://www.inkscape.org/namespaces/inkscape"
   width="127"
   height="127"
   viewBox="0 0 33.602083 33.602084"
   version="1.1"
   id="svg8"
   inkscape:version="0.92.3 (2405546, 2018-03-11)"
   sodipodi:docname="hourglass.svg"
   inkscape:export-filename="/home/mvlach/Dev/LD44/Assets/Sprites/hourglass.svg.png"
   inkscape:export-xdpi="96"
   inkscape:export-ydpi="96">
  <defs
     id="defs2" />
  <sodipodi:namedview
     id="base"
     pagecolor="#ffffff"
     bordercolor="#666666"
     borderopacity="1.0"
     inkscape:pageopacity="0.0"
     inkscape:pageshadow="2"
     inkscape:zoom="2.8"
     inkscape:cx="33.462838"
     inkscape:cy="43.739407"
     inkscape:document-units="mm"
     inkscape:current-layer="layer1"
     showgrid="false"
     units="px"
     inkscape:pagecheckerboard="true"
     inkscape:window-width="1600"
     inkscape:window-height="841"
     inkscape:window-x="0"
     inkscape:window-y="27"
     inkscape:window-maximized="1" />
  <metadata
     id="metadata5">
    <rdf:RDF>
      <cc:Work
         rdf:about="">
        <dc:format>image/svg+xml</dc:format>
        <dc:type
           rdf:resource="http://purl.org/dc/dcmitype/StillImage" />
        <dc:title />
      </cc:Work>
    </rdf:RDF>
  </metadata>
  <g
     inkscape:label="Layer 1"
     inkscape:groupmode="layer"
     id="layer1"
     transform="translate(0,-263.3979)">
    <g
       id="g845"
       transform="translate(6.6666662e-8,1.2628767)">
      <path
         sodipodi:nodetypes="sssccssss"
         inkscape:connector-curvature="0"
         id="rect834"
         d="m 16.642912,278.38251 c -5.540004,0 -9.9999067,-4.46042 -9.9999067,-10.00042 v -1.99781 c 0,-0.57395 0.050644,-1.13557 0.1426268,-1.68258 H 26.816452 c 0.09198,0.54701 0.142626,1.10863 0.142626,1.68258 v 1.99781 c 0,5.54 -4.459903,10.00042 -9.999907,10.00042 z"
         style="fill:none;fill-opacity:1;stroke:#ffffff;stroke-width:1.5;stroke-linecap:butt;stroke-linejoin:miter;stroke-miterlimit:4;stroke-dasharray:none;stroke-dashoffset:0;stroke-opacity:1" />
      <path
         inkscape:connector-curvature="0"
         id="path836"
         d="m 16.801041,278.09853 a 9.5941889,7.7485123 0 0 1 -9.5940057,-7.74837 9.5941889,7.7485123 0 0 1 0.021113,-0.48163 H 26.364973 a 9.5941889,7.7485123 0 0 1 0.03008,0.48163 9.5941889,7.7485123 0 0 1 -9.594007,7.74837 z"
         style="fill:#ffffff;fill-opacity:1;stroke:none;stroke-width:1.44070971;stroke-linecap:butt;stroke-linejoin:miter;stroke-miterlimit:4;stroke-dasharray:none;stroke-dashoffset:0;stroke-opacity:1" />
      <path
         sodipodi:nodetypes="sssccssss"
         inkscape:connector-curvature="0"
         id="rect834-3"
         d="m 16.642912,279.48962 c -5.540005,0 -9.9999068,4.46042 -9.9999068,10.00042 v 1.99781 c 0,0.57395 0.05064,1.13557 0.142626,1.68258 H 26.816452 c 0.09198,-0.54701 0.142626,-1.10863 0.142626,-1.68258 v -1.99781 c 0,-5.54 -4.459903,-10.00042 -9.999907,-10.00042 z"
         style="fill:none;fill-opacity:1;stroke:#ffffff;stroke-width:1.5;stroke-linecap:butt;stroke-linejoin:miter;stroke-miterlimit:4;stroke-dasharray:none;stroke-dashoffset:0;stroke-opacity:1" />
    </g>
  </g>
</svg>
